# xmcd
#
# Track frame offsets: 
#        150
#        20997
#        41307
#        60312
#        81565
#        97632
#        128820
#        147605
#        174484
#        195957
#        218312
#        245732
#        260350
#
# Disc length: 3835 seconds
#
# Revision: 0
# Processed by: cddbd v1.5.2PL0 Copyright (c) Steve Scherf et al.
# Submitted via: ExactAudioCopy v0.95b4
#
DISCID=ac0ef90d
DTITLE=Jim Diamond and The Groove Syndicate - Angel Child
DYEAR=1997
DGENRE=Blues
TTITLE0=Bad Luck and Trouble
TTITLE1=Seein' Black
TTITLE2=Three Finger Shuffle
TTITLE3=Love Tap
TTITLE4=Angel Child
TTITLE5=Sweet Little Angel
TTITLE6=Double Eyed Whammy
TTITLE7=Tiger's Blues
TTITLE8=King of the Blues
TTITLE9=Akos
TTITLE10=Mine All Mine
TTITLE11=Texas Blues
TTITLE12=Strollin' with Bone
EXTD=Booking Information\n(502) 586-9839\n309 Franklin Ave\nFranklin K
EXTD=Y 42134
EXTT0=
EXTT1=
EXTT2=
EXTT3=
EXTT4=
EXTT5=
EXTT6=
EXTT7=
EXTT8=
EXTT9=
EXTT10=
EXTT11=
EXTT12=
PLAYORDER=
